<svg width="21" height="21" viewBox="0 0 21 21" fill="none" xmlns="http://www.w3.org/2000/svg">
<path d="M9.59677 11.4024L2.30685 10.643C1.32562 10.5408 0.489246 9.88648 0.153896 8.95868C-0.329088 7.62243 0.362626 6.14764 1.69888 5.66466L16.8625 0.183835C17.5406 -0.0612783 18.2832 -0.0612783 18.9613 0.183835C20.5648 0.763416 21.3949 2.53316 20.8153 4.13666L15.3345 19.3003C14.9992 20.2281 14.1628 20.8824 13.1815 20.9846C11.7683 21.1318 10.5033 20.1055 10.3561 18.6923L9.59677 11.4024ZM2.31433 7.6395C2.1034 7.76206 2.00364 8.02151 2.0895 8.25907C2.15657 8.44463 2.32384 8.57549 2.52009 8.59593L10.6404 9.4418C11.1244 9.49222 11.5069 9.87474 11.5574 10.3587L12.4032 18.4791C12.4327 18.7617 12.6857 18.967 12.9683 18.9375C13.1646 18.9171 13.3318 18.7862 13.3989 18.6007L18.8797 3.43705C19.0729 2.90255 18.7962 2.31263 18.2617 2.11944C18.0357 2.03773 17.7882 2.03773 17.5621 2.11944L2.3985 7.60026L2.31433 7.6395Z" fill="white" fill-opacity="0.15"/>
<path d="M9.59677 11.4024L2.30685 10.643C1.32562 10.5408 0.489246 9.88648 0.153896 8.95868C-0.329088 7.62243 0.362626 6.14764 1.69888 5.66466L16.8625 0.183835C17.5406 -0.0612783 18.2832 -0.0612783 18.9613 0.183835C20.5648 0.763416 21.3949 2.53316 20.8153 4.13666L15.3345 19.3003C14.9992 20.2281 14.1628 20.8824 13.1815 20.9846C11.7683 21.1318 10.5033 20.1055 10.3561 18.6923L9.59677 11.4024ZM2.31433 7.6395C2.1034 7.76206 2.00364 8.02151 2.0895 8.25907C2.15657 8.44463 2.32384 8.57549 2.52009 8.59593L10.6404 9.4418C11.1244 9.49222 11.5069 9.87474 11.5574 10.3587L12.4032 18.4791C12.4327 18.7617 12.6857 18.967 12.9683 18.9375C13.1646 18.9171 13.3318 18.7862 13.3989 18.6007L18.8797 3.43705C19.0729 2.90255 18.7962 2.31263 18.2617 2.11944C18.0357 2.03773 17.7882 2.03773 17.5621 2.11944L2.3985 7.60026L2.31433 7.6395Z" fill="url(#paint0_linear_540_1286)" fill-opacity="0.9"/>
<defs>
<linearGradient id="paint0_linear_540_1286" x1="21" y1="-1.25162e-06" x2="0.00130956" y2="20.5625" gradientUnits="userSpaceOnUse">
<stop stop-color="#FF8B66"/>
<stop offset="1" stop-color="#AA00FF"/>
</linearGradient>
</defs>
</svg>
