<svg width="41" height="52" viewBox="0 0 41 52" fill="none" xmlns="http://www.w3.org/2000/svg">
<path d="M1.48822 14.5L1.98822 36.5L18.4882 38.5L36.4882 33.5L38.4882 16.5L36.4882 13L30.9882 8.5L30.4882 4L25.9882 2.5L19.9882 4L14.9882 2L9.98822 4L7.98822 9.5L1.48822 14.5Z" fill="#FFC5FD"/>
<path fill-rule="evenodd" clip-rule="evenodd" d="M4.81889 42.8743C1.27086 40.1623 -0.00826276 35.5886 4.01279e-05 31.1228V31.1228L0.0278943 16.1402C0.0289384 15.5786 0.124586 15.0212 0.310822 14.4914L0.333374 14.4273C1.08209 12.2973 2.37762 10.8551 4.46277 9.83057C5.98231 9.08392 6.67033 8.20115 6.88102 6.72778C7.44591 2.77754 10.5029 0.082054 14.44 0.062549C15.8856 0.0553876 16.4255 0.188298 18.0562 0.952806C19.6304 1.69085 20.2872 1.68103 21.9422 0.894701C24.4037 -0.274877 26.4885 -0.296737 28.7793 0.823009C30.9966 1.90679 32.4526 3.87957 32.9421 6.46323C33.2702 8.19494 33.8514 8.93356 35.486 9.69644C37.3971 10.5883 38.567 11.6418 39.3766 13.1998C39.5219 13.4795 39.6429 13.6824 39.7435 13.895C40.2832 15.0351 40.2388 16.4518 40.2388 31.4595V31.4595C40.2388 35.4908 39.1099 39.5981 36.0178 42.1846C32.36 45.2443 27.814 47.2775 22.8227 47.841L20.2514 47.844C19.1812 47.8453 18.168 47.8464 17.2088 47.8474C12.5805 47.3356 8.33302 45.5604 4.81889 42.8743ZM30.8892 24.7543C32.9022 27.4354 31.7836 31.1709 28.5964 32.4108C28.1223 32.5952 27.6182 32.6904 27.1095 32.6915L20.431 32.7067C12.7606 32.7241 12.2951 32.7051 11.34 32.3371C7.71117 30.9387 7.11338 25.8403 10.3264 23.6923C11.2106 23.1011 12.0099 22.8162 13.092 22.7064C14.4542 22.5681 15.0755 21.9589 15.088 20.7493C15.111 18.5131 16.9037 16.4101 19.1947 15.9319C22.0523 15.3354 25.0066 17.776 25.021 20.745C25.0268 21.9552 25.6495 22.5679 27.0143 22.7064C28.6422 22.8716 30.0238 23.6018 30.8892 24.7543ZM8.40244 13.0149C11.9368 13.9169 12.4076 18.6866 9.11313 20.2139C7.17019 21.1147 5.00958 20.338 4.05437 18.3954C2.6496 15.5386 5.324 12.2291 8.40244 13.0149ZM36.0526 15.1075C37.0119 17.0583 36.0382 19.5563 34.0245 20.3106C31.1989 21.369 28.3542 19.0949 28.816 16.1469C29.3983 12.4292 34.3835 11.7131 36.0526 15.1075ZM16.0858 3.88767C19.5179 5.18333 19.2391 10.2666 15.6857 11.1816C14.3019 11.5379 12.9941 11.1716 11.9794 10.1435C9.13327 7.25953 12.2878 2.45385 16.0858 3.88767ZM27.9246 4.60576C29.9772 6.45337 29.4975 9.7536 27.0049 10.9328C25.0409 11.862 22.7852 11.0124 21.8534 8.99261C21.482 8.18752 21.5144 6.64204 21.92 5.81516C23.0359 3.54015 26.0633 2.93038 27.9246 4.60576Z" fill="white" fill-opacity="0.15"/>
<path fill-rule="evenodd" clip-rule="evenodd" d="M4.81889 42.8743C1.27086 40.1623 -0.00826276 35.5886 4.01279e-05 31.1228V31.1228L0.0278943 16.1402C0.0289384 15.5786 0.124586 15.0212 0.310822 14.4914L0.333374 14.4273C1.08209 12.2973 2.37762 10.8551 4.46277 9.83057C5.98231 9.08392 6.67033 8.20115 6.88102 6.72778C7.44591 2.77754 10.5029 0.082054 14.44 0.062549C15.8856 0.0553876 16.4255 0.188298 18.0562 0.952806C19.6304 1.69085 20.2872 1.68103 21.9422 0.894701C24.4037 -0.274877 26.4885 -0.296737 28.7793 0.823009C30.9966 1.90679 32.4526 3.87957 32.9421 6.46323C33.2702 8.19494 33.8514 8.93356 35.486 9.69644C37.3971 10.5883 38.567 11.6418 39.3766 13.1998C39.5219 13.4795 39.6429 13.6824 39.7435 13.895C40.2832 15.0351 40.2388 16.4518 40.2388 31.4595V31.4595C40.2388 35.4908 39.1099 39.5981 36.0178 42.1846C32.36 45.2443 27.814 47.2775 22.8227 47.841L20.2514 47.844C19.1812 47.8453 18.168 47.8464 17.2088 47.8474C12.5805 47.3356 8.33302 45.5604 4.81889 42.8743ZM30.8892 24.7543C32.9022 27.4354 31.7836 31.1709 28.5964 32.4108C28.1223 32.5952 27.6182 32.6904 27.1095 32.6915L20.431 32.7067C12.7606 32.7241 12.2951 32.7051 11.34 32.3371C7.71117 30.9387 7.11338 25.8403 10.3264 23.6923C11.2106 23.1011 12.0099 22.8162 13.092 22.7064C14.4542 22.5681 15.0755 21.9589 15.088 20.7493C15.111 18.5131 16.9037 16.4101 19.1947 15.9319C22.0523 15.3354 25.0066 17.776 25.021 20.745C25.0268 21.9552 25.6495 22.5679 27.0143 22.7064C28.6422 22.8716 30.0238 23.6018 30.8892 24.7543ZM8.40244 13.0149C11.9368 13.9169 12.4076 18.6866 9.11313 20.2139C7.17019 21.1147 5.00958 20.338 4.05437 18.3954C2.6496 15.5386 5.324 12.2291 8.40244 13.0149ZM36.0526 15.1075C37.0119 17.0583 36.0382 19.5563 34.0245 20.3106C31.1989 21.369 28.3542 19.0949 28.816 16.1469C29.3983 12.4292 34.3835 11.7131 36.0526 15.1075ZM16.0858 3.88767C19.5179 5.18333 19.2391 10.2666 15.6857 11.1816C14.3019 11.5379 12.9941 11.1716 11.9794 10.1435C9.13327 7.25953 12.2878 2.45385 16.0858 3.88767ZM27.9246 4.60576C29.9772 6.45337 29.4975 9.7536 27.0049 10.9328C25.0409 11.862 22.7852 11.0124 21.8534 8.99261C21.482 8.18752 21.5144 6.64204 21.92 5.81516C23.0359 3.54015 26.0633 2.93038 27.9246 4.60576Z" fill="url(#paint0_linear_723_2073)" fill-opacity="0.9"/>
<rect x="5.98822" y="29" width="30" height="23" rx="11.5" fill="#2C2C2C"/>
<defs>
<linearGradient id="paint0_linear_723_2073" x1="40.2396" y1="-2.85192e-06" x2="-6.72969" y2="38.6783" gradientUnits="userSpaceOnUse">
<stop stop-color="#FF8B66"/>
<stop offset="1" stop-color="#AA00FF"/>
</linearGradient>
</defs>
</svg>
