<svg width="17" height="20" viewBox="0 0 17 20" fill="none" xmlns="http://www.w3.org/2000/svg">
<path d="M1 12C1.55228 12 2 12.4477 2 13V19C2 19.5523 1.55228 20 1 20C0.447715 20 0 19.5523 0 19V13C0 12.4477 0.447715 12 1 12ZM6 0C6.55228 0 7 0.447715 7 1V19C7 19.5523 6.55228 20 6 20C5.44772 20 5 19.5523 5 19V1C5 0.447715 5.44772 0 6 0ZM11 8C11.5523 8 12 8.44772 12 9V19C12 19.5523 11.5523 20 11 20C10.4477 20 10 19.5523 10 19V9C10 8.44772 10.4477 8 11 8ZM16 4C16.5523 4 17 4.44772 17 5V19C17 19.5523 16.5523 20 16 20C15.4477 20 15 19.5523 15 19V5C15 4.44772 15.4477 4 16 4Z" fill="white" fill-opacity="0.5"/>
<path d="M1 12C1.55228 12 2 12.4477 2 13V19C2 19.5523 1.55228 20 1 20C0.447715 20 0 19.5523 0 19V13C0 12.4477 0.447715 12 1 12ZM6 0C6.55228 0 7 0.447715 7 1V19C7 19.5523 6.55228 20 6 20C5.44772 20 5 19.5523 5 19V1C5 0.447715 5.44772 0 6 0ZM11 8C11.5523 8 12 8.44772 12 9V19C12 19.5523 11.5523 20 11 20C10.4477 20 10 19.5523 10 19V9C10 8.44772 10.4477 8 11 8ZM16 4C16.5523 4 17 4.44772 17 5V19C17 19.5523 16.5523 20 16 20C15.4477 20 15 19.5523 15 19V5C15 4.44772 15.4477 4 16 4Z" fill="#2C2C2C" fill-opacity="0.6"/>
</svg>
